<?xml version="1.0" encoding="utf-8"?>
<svg height="512px" style="enable-background:new 0 0 512 512;" version="1.1" viewBox="0 0 512 512" width="512px" xmlns="http://www.w3.org/2000/svg">
  <g id="_x39_99_x2C__Egypt_x2C__giza_x2C__landmark_x2C__pyramid_x2C__sun">
    <g id="XMLID_534_">
      <polygon id="XMLID_535_" points="303.635,148.93 241.252,264.663 241.251,264.666 165.547,405.113 457.066,405.113   " style="fill: rgb(255, 255, 255);"/>
      <path d="M139.103,172.124c17.986,0,32.619-14.633,32.619-32.618c0-17.986-14.633-32.619-32.619-32.619    c-17.985,0-32.618,14.633-32.618,32.619C106.484,157.491,121.117,172.124,139.103,172.124z" id="XMLID_536_" style="fill: rgb(255, 255, 255);"/>
      <polygon id="XMLID_537_" points="191.782,212.511 54.934,405.113 154.96,405.113 231.595,262.939   " style="fill: rgb(255, 255, 255);"/>
      <path d="M344.137,134.846c0.699,0,1.411-0.158,2.08-0.493c4.056-2.028,16.912-6.541,22.58-0.873    c1.818,1.819,4.771,1.819,6.589,0c6.713-6.713,22.431,0.799,22.588,0.876c0.667,0.332,1.375,0.489,2.073,0.489    c1.709,0,3.354-0.944,4.171-2.577c1.151-2.302,0.218-5.101-2.083-6.252c-0.806-0.401-18.209-8.933-30.043-1.713    c-11.834-7.221-29.238,1.311-30.043,1.713c-2.302,1.151-3.234,3.95-2.084,6.252C340.781,133.902,342.427,134.846,344.137,134.846z    " id="XMLID_538_" style="fill: rgb(255, 255, 255);"/>
      <path d="M388.646,158.119c-2.302,1.151-3.234,3.95-2.083,6.251c0.816,1.633,2.462,2.577,4.171,2.577    c0.7,0,1.411-0.159,2.08-0.493c4.056-2.029,16.912-6.542,22.58-0.873c1.818,1.819,4.771,1.819,6.59,0    c6.713-6.713,22.431,0.799,22.587,0.876c0.667,0.332,1.375,0.489,2.073,0.489c1.709,0,3.354-0.944,4.171-2.577    c1.151-2.302,0.219-5.101-2.083-6.251c-0.806-0.402-18.209-8.933-30.043-1.714C406.856,149.184,389.452,157.716,388.646,158.119z" id="XMLID_539_" style="fill: rgb(255, 255, 255);"/>
    </g>
  </g>
  <g id="Layer_1"/>
</svg>